<svg width="165" height="61" viewBox="0 0 165 61" fill="none" xmlns="http://www.w3.org/2000/svg">
<path d="M17.4414 37V12.3906H20.5V33.9766H30.6602V37H17.4414ZM32.6289 31.7969V23.1133C32.6289 22.0117 33.1211 20.9336 34.1055 19.8789C35.3242 18.6133 36.8477 17.9805 38.6758 17.9805V20.8281C37.293 20.8281 36.332 21.4023 35.793 22.5508C35.6289 22.9023 35.5469 23.2539 35.5469 23.6055V31.3398C35.5469 32.207 35.9453 32.9453 36.7422 33.5547C37.3047 33.9766 37.9492 34.1875 38.6758 34.1875V37.0352C36.4492 37.0352 34.7266 36.1328 33.5078 34.3281C32.9219 33.4375 32.6289 32.5938 32.6289 31.7969ZM40.1875 37.0352V34.1875C41.4297 34.1875 42.3203 33.625 42.8594 32.5C43.0469 32.125 43.1406 31.7617 43.1406 31.4102V23.6055C43.1406 22.6445 42.7305 21.8828 41.9102 21.3203C41.3945 20.9922 40.8086 20.8281 40.1523 20.8281V17.9805C42.3086 17.9805 43.9727 18.8594 45.1445 20.6172C45.7305 21.4844 46.0234 22.3164 46.0234 23.1133V31.7969C46.0234 32.9453 45.5312 34.0586 44.5469 35.1367C43.3984 36.3789 41.9453 37.0117 40.1875 37.0352ZM48.168 22.4102V19.5273H50.4883V17.4883C50.4883 16.1758 50.9219 14.9805 51.7891 13.9023C52.75 12.7773 53.9922 12.2031 55.5156 12.1797H56.8164L56.1484 15.0273H55.4805C54.1445 15.0977 53.4648 15.918 53.4414 17.4883V19.5625L55.832 19.5273V22.4102H53.4414V37H50.4883V22.4102H48.168ZM57.8008 21.0391V18.1914H60.1211V12.1094H63.1094V18.1914H65.3594V21.0742H63.1094V31.1641C63.1094 32.8281 63.7891 33.7539 65.1484 33.9414C65.4062 33.9883 65.6641 34.0117 65.9219 34.0117H66.4141L67.082 37H65.8164C62.9336 36.9766 61.1641 35.8984 60.5078 33.7656C60.2734 32.9688 60.1562 31.9844 60.1562 30.8125L60.1211 21.0391H57.8008ZM68.6641 37V12.3906H71.7227V23.1133H74.8867V26.1016H71.7227V37H68.6641ZM76.6445 26.1016V23.1133H79.7734V12.3906H82.8672V37H79.7734V26.1016H76.6445ZM85.6094 31.7969V23.1133C85.6094 22.0117 86.1016 20.9336 87.0859 19.8789C88.3047 18.6133 89.8281 17.9805 91.6562 17.9805V20.8281C90.2734 20.8281 89.3125 21.4023 88.7734 22.5508C88.6094 22.9023 88.5273 23.2539 88.5273 23.6055V31.3398C88.5273 32.207 88.9258 32.9453 89.7227 33.5547C90.2852 33.9766 90.9297 34.1875 91.6562 34.1875V37.0352C89.4297 37.0352 87.707 36.1328 86.4883 34.3281C85.9023 33.4375 85.6094 32.5938 85.6094 31.7969ZM93.168 37.0352V34.1875C94.4102 34.1875 95.3008 33.625 95.8398 32.5C96.0273 32.125 96.1211 31.7617 96.1211 31.4102V23.6055C96.1211 22.6445 95.7109 21.8828 94.8906 21.3203C94.375 20.9922 93.7891 20.8281 93.1328 20.8281V17.9805C95.2891 17.9805 96.9531 18.8594 98.125 20.6172C98.7109 21.4844 99.0039 22.3164 99.0039 23.1133V31.7969C99.0039 32.9453 98.5117 34.0586 97.5273 35.1367C96.3789 36.3789 94.9258 37.0117 93.168 37.0352ZM101.676 31.9375V18.0156H104.664V31.5859C104.664 32.4297 105.086 33.1328 105.93 33.6953C106.492 34.0469 107.113 34.2227 107.793 34.2227V37.1758C105.543 37.1758 103.809 36.2969 102.59 34.5391C101.98 33.6484 101.676 32.7812 101.676 31.9375ZM109.34 37.1758V34.2227C110.605 34.2227 111.531 33.7188 112.117 32.7109C112.328 32.3359 112.434 31.9609 112.434 31.5859V18.0156H115.422V31.9375C115.422 33.0391 114.918 34.1289 113.91 35.207C112.691 36.4961 111.168 37.1523 109.34 37.1758ZM117.461 32.0078L120.238 31.4805C120.238 32.5352 120.789 33.3672 121.891 33.9766C122.43 34.2344 122.945 34.375 123.438 34.3984V37.1758C121.164 37.1758 119.465 36.3555 118.34 34.7148C117.754 33.8477 117.461 32.9453 117.461 32.0078ZM117.637 23.3594C117.637 21.2266 118.609 19.6445 120.555 18.6133C121.492 18.1211 122.43 17.875 123.367 17.875V20.6172C122.289 20.6172 121.457 21.0625 120.871 21.9531C120.566 22.3984 120.414 22.8672 120.414 23.3594C120.414 24.1094 121 24.7188 122.172 25.1875C123.062 25.5625 124.785 26.0547 127.34 26.6641C128.934 26.9922 130.07 27.7773 130.75 29.0195C131.102 29.6758 131.277 30.4141 131.277 31.2344C131.277 33.4844 130.375 35.1484 128.57 36.2266C127.516 36.8594 126.309 37.1758 124.949 37.1758V34.3984C126.027 34.3984 126.93 34.0234 127.656 33.2734C128.172 32.7344 128.43 32.1016 128.43 31.375C128.43 30.4375 127.504 29.6875 125.652 29.125C125.184 28.9844 124.434 28.7852 123.402 28.5273C122.301 28.2695 121.504 28.0586 121.012 27.8945C119.23 27.1914 118.152 26.125 117.777 24.6953C117.684 24.2734 117.637 23.8281 117.637 23.3594ZM124.914 20.6523V17.875C126.93 17.875 128.559 18.625 129.801 20.125C130.574 21.0859 130.961 22.0938 130.961 23.1484L128.184 23.6055C128.184 22.3164 127.48 21.4141 126.074 20.8984C125.652 20.7344 125.266 20.6523 124.914 20.6523ZM133.352 31.7969V23.0781C133.375 22 133.891 20.9336 134.898 19.8789C136.117 18.6367 137.594 18.0039 139.328 17.9805V20.7578C138.203 20.7578 137.324 21.25 136.691 22.2344C136.434 22.6562 136.305 23.043 136.305 23.3945V25.7852H144.18V23.3945C144.18 22.3398 143.641 21.5664 142.562 21.0742C142.07 20.8398 141.566 20.7227 141.051 20.7227V17.9805C142.668 17.9805 144.109 18.5547 145.375 19.7031C146.43 20.7109 146.969 21.8242 146.992 23.043V28.6328H136.305V31.7969C136.305 32.4531 136.68 33.0625 137.43 33.625C138.039 34.0469 138.684 34.2578 139.363 34.2578V37C137.23 37 135.555 36.1328 134.336 34.3984C133.68 33.4844 133.352 32.6172 133.352 31.7969ZM141.051 37V34.2227C142.457 34.2227 143.512 33.6133 144.215 32.3945C144.355 32.1367 144.461 31.8906 144.531 31.6562L147.027 32.5703C146.605 34.1875 145.645 35.4062 144.145 36.2266C143.184 36.7422 142.152 37 141.051 37Z" fill="white"/>
<path d="M0.312 58L3.624 53.608L0.516 49.48H1.5L4.332 53.272H5.496V49.48H6.324V53.272H7.476L10.32 49.48H11.304L8.184 53.608L11.496 58H10.524L7.5 54.04H6.324V58H5.496V54.04H4.308L1.284 58H0.312ZM14.3802 58V49.48H15.2082V56.848L20.4882 49.48H21.2682V58H20.4402V50.764L15.2202 58H14.3802ZM30.9374 50.224H27.9014V58H27.0614V50.224H24.0254V49.48H30.9374V50.224ZM39.4136 58V50.224H35.9336L35.8856 52.024C35.8456 53.2 35.7616 54.176 35.6336 54.952C35.5056 55.728 35.3256 56.34 35.0936 56.788C34.8616 57.228 34.5776 57.544 34.2416 57.736C33.9056 57.92 33.5056 58.012 33.0416 58.012V57.268C33.3536 57.268 33.6296 57.188 33.8696 57.028C34.1096 56.868 34.3136 56.588 34.4816 56.188C34.6496 55.788 34.7816 55.236 34.8776 54.532C34.9816 53.82 35.0496 52.92 35.0816 51.832L35.1536 49.48H40.2416V58H39.4136ZM47.2444 58.06C46.6444 58.06 46.1004 57.94 45.6124 57.7C45.1244 57.46 44.7044 57.136 44.3524 56.728C44.0004 56.312 43.7284 55.848 43.5364 55.336C43.3444 54.816 43.2484 54.284 43.2484 53.74C43.2484 53.172 43.3484 52.632 43.5484 52.12C43.7484 51.6 44.0284 51.14 44.3884 50.74C44.7564 50.332 45.1844 50.012 45.6724 49.78C46.1604 49.54 46.6884 49.42 47.2564 49.42C47.8564 49.42 48.4004 49.544 48.8884 49.792C49.3764 50.04 49.7924 50.372 50.1364 50.788C50.4884 51.204 50.7604 51.668 50.9524 52.18C51.1444 52.692 51.2404 53.216 51.2404 53.752C51.2404 54.32 51.1404 54.864 50.9404 55.384C50.7404 55.896 50.4604 56.356 50.1004 56.764C49.7404 57.164 49.3164 57.48 48.8284 57.712C48.3404 57.944 47.8124 58.06 47.2444 58.06ZM44.0884 53.74C44.0884 54.204 44.1644 54.652 44.3164 55.084C44.4684 55.508 44.6844 55.888 44.9644 56.224C45.2444 56.552 45.5764 56.816 45.9604 57.016C46.3524 57.208 46.7804 57.304 47.2444 57.304C47.7324 57.304 48.1684 57.204 48.5524 57.004C48.9444 56.796 49.2764 56.524 49.5484 56.188C49.8284 55.844 50.0404 55.46 50.1844 55.036C50.3284 54.612 50.4004 54.18 50.4004 53.74C50.4004 53.276 50.3244 52.832 50.1724 52.408C50.0204 51.984 49.8004 51.604 49.5124 51.268C49.2324 50.932 48.9004 50.668 48.5164 50.476C48.1324 50.284 47.7084 50.188 47.2444 50.188C46.7644 50.188 46.3284 50.288 45.9364 50.488C45.5524 50.688 45.2204 50.96 44.9404 51.304C44.6684 51.64 44.4564 52.02 44.3044 52.444C44.1604 52.868 44.0884 53.3 44.0884 53.74ZM60.6721 55.804C60.6721 56.228 60.5641 56.608 60.3481 56.944C60.1321 57.272 59.8401 57.532 59.4721 57.724C59.1121 57.908 58.7161 58 58.2841 58H54.2641V49.48H58.3681C58.7681 49.48 59.1121 49.588 59.4001 49.804C59.6961 50.012 59.9201 50.284 60.0721 50.62C60.2321 50.948 60.3121 51.292 60.3121 51.652C60.3121 52.076 60.2041 52.468 59.9881 52.828C59.7721 53.188 59.4721 53.456 59.0881 53.632C59.5761 53.776 59.9601 54.044 60.2401 54.436C60.5281 54.828 60.6721 55.284 60.6721 55.804ZM59.8321 55.66C59.8321 55.372 59.7681 55.108 59.6401 54.868C59.5121 54.62 59.3361 54.42 59.1121 54.268C58.8961 54.116 58.6481 54.04 58.3681 54.04H55.1041V57.268H58.2841C58.5721 57.268 58.8321 57.192 59.0641 57.04C59.2961 56.888 59.4801 56.692 59.6161 56.452C59.7601 56.204 59.8321 55.94 59.8321 55.66ZM55.1041 50.212V53.356H58.0321C58.3121 53.356 58.5601 53.284 58.7761 53.14C58.9921 52.988 59.1641 52.792 59.2921 52.552C59.4201 52.312 59.4841 52.056 59.4841 51.784C59.4841 51.496 59.4241 51.236 59.3041 51.004C59.1841 50.764 59.0201 50.572 58.8121 50.428C58.6041 50.284 58.3681 50.212 58.1041 50.212H55.1041ZM63.7443 58V49.48H64.5723V56.848L69.8523 49.48H70.6323V58H69.8043V50.764L64.5843 58H63.7443ZM74.3015 58V49.48H75.1295V56.848L80.4095 49.48H81.1895V58H80.3615V50.764L75.1415 58H74.3015ZM77.7575 48.76C77.3655 48.76 77.0335 48.704 76.7615 48.592C76.4975 48.472 76.2975 48.312 76.1615 48.112C76.0255 47.904 75.9535 47.68 75.9455 47.44H76.6055C76.6135 47.648 76.6975 47.836 76.8575 48.004C77.0255 48.172 77.3255 48.256 77.7575 48.256C78.1735 48.256 78.4655 48.18 78.6335 48.028C78.8015 47.868 78.8895 47.672 78.8975 47.44H79.5575C79.5495 47.68 79.4775 47.904 79.3415 48.112C79.2055 48.312 79.0055 48.472 78.7415 48.592C78.4855 48.704 78.1575 48.76 77.7575 48.76ZM89.3092 58V49.48H90.1492V53.272H91.4332L94.3612 49.48H95.3332L92.1292 53.608L95.5372 58H94.5052L91.4572 54.04H90.1492V58H89.3092ZM101.318 58.06C100.718 58.06 100.174 57.94 99.686 57.7C99.198 57.46 98.778 57.136 98.426 56.728C98.074 56.312 97.802 55.848 97.61 55.336C97.418 54.816 97.322 54.284 97.322 53.74C97.322 53.172 97.422 52.632 97.622 52.12C97.822 51.6 98.102 51.14 98.462 50.74C98.83 50.332 99.258 50.012 99.746 49.78C100.234 49.54 100.762 49.42 101.33 49.42C101.93 49.42 102.474 49.544 102.962 49.792C103.45 50.04 103.866 50.372 104.21 50.788C104.562 51.204 104.834 51.668 105.026 52.18C105.218 52.692 105.314 53.216 105.314 53.752C105.314 54.32 105.214 54.864 105.014 55.384C104.814 55.896 104.534 56.356 104.174 56.764C103.814 57.164 103.39 57.48 102.902 57.712C102.414 57.944 101.886 58.06 101.318 58.06ZM98.162 53.74C98.162 54.204 98.238 54.652 98.39 55.084C98.542 55.508 98.758 55.888 99.038 56.224C99.318 56.552 99.65 56.816 100.034 57.016C100.426 57.208 100.854 57.304 101.318 57.304C101.806 57.304 102.242 57.204 102.626 57.004C103.018 56.796 103.35 56.524 103.622 56.188C103.902 55.844 104.114 55.46 104.258 55.036C104.402 54.612 104.474 54.18 104.474 53.74C104.474 53.276 104.398 52.832 104.246 52.408C104.094 51.984 103.874 51.604 103.586 51.268C103.306 50.932 102.974 50.668 102.59 50.476C102.206 50.284 101.782 50.188 101.318 50.188C100.838 50.188 100.402 50.288 100.01 50.488C99.626 50.688 99.294 50.96 99.014 51.304C98.742 51.64 98.53 52.02 98.378 52.444C98.234 52.868 98.162 53.3 98.162 53.74ZM115.886 58V51.064L112.802 56.452H112.274L109.178 51.064V58H108.338V49.48H109.202L112.526 55.312L115.874 49.48H116.726V58H115.886ZM120.301 58V49.48H126.733V58H125.893V50.224H121.141V58H120.301ZM136.068 58V50.224H132.588L132.54 52.024C132.5 53.2 132.416 54.176 132.288 54.952C132.16 55.728 131.98 56.34 131.748 56.788C131.516 57.228 131.232 57.544 130.896 57.736C130.56 57.92 130.16 58.012 129.696 58.012V57.268C130.008 57.268 130.284 57.188 130.524 57.028C130.764 56.868 130.968 56.588 131.136 56.188C131.304 55.788 131.436 55.236 131.532 54.532C131.636 53.82 131.704 52.92 131.736 51.832L131.808 49.48H136.896V58H136.068ZM146.19 57.256V58H140.466V49.48H146.082V50.224H141.306V53.296H145.47V54.004H141.306V57.256H146.19ZM149.219 58V49.48H150.059V53.272H151.343L154.271 49.48H155.243L152.039 53.608L155.447 58H154.415L151.367 54.04H150.059V58H149.219ZM157.232 53.68C157.232 53.16 157.32 52.652 157.496 52.156C157.68 51.652 157.944 51.196 158.288 50.788C158.632 50.372 159.056 50.044 159.56 49.804C160.064 49.556 160.636 49.432 161.276 49.432C162.036 49.432 162.684 49.608 163.22 49.96C163.764 50.304 164.164 50.748 164.42 51.292L163.76 51.7C163.576 51.324 163.344 51.028 163.064 50.812C162.784 50.588 162.484 50.428 162.164 50.332C161.852 50.236 161.54 50.188 161.228 50.188C160.716 50.188 160.264 50.292 159.872 50.5C159.48 50.7 159.148 50.972 158.876 51.316C158.612 51.652 158.412 52.032 158.276 52.456C158.14 52.872 158.072 53.296 158.072 53.728C158.072 54.2 158.152 54.652 158.312 55.084C158.472 55.516 158.696 55.9 158.984 56.236C159.272 56.564 159.608 56.828 159.992 57.028C160.384 57.22 160.808 57.316 161.264 57.316C161.584 57.316 161.912 57.26 162.248 57.148C162.584 57.036 162.896 56.864 163.184 56.632C163.48 56.4 163.716 56.1 163.892 55.732L164.588 56.092C164.412 56.516 164.14 56.876 163.772 57.172C163.404 57.468 162.992 57.692 162.536 57.844C162.088 57.996 161.648 58.072 161.216 58.072C160.632 58.072 160.096 57.948 159.608 57.7C159.12 57.444 158.696 57.108 158.336 56.692C157.984 56.268 157.712 55.796 157.52 55.276C157.328 54.748 157.232 54.216 157.232 53.68Z" fill="white"/>
</svg>
